<mxfile host="app.diagrams.net" modified="2023-08-26T03:39:19.810Z" agent="Mozilla/5.0 (Windows NT 10.0; Win64; x64) AppleWebKit/537.36 (KHTML, like Gecko) Chrome/116.0.0.0 Safari/537.36" etag="sNkLfw2cgRlC4mvXAldi" version="21.6.2" type="device" pages="8">
  <diagram name="Contextual" id="6aO5ShzmFqdWV1iut-u1">
    <mxGraphModel dx="1434" dy="796" grid="1" gridSize="10" guides="1" tooltips="1" connect="1" arrows="1" fold="1" page="1" pageScale="1" pageWidth="827" pageHeight="1169" math="0" shadow="0">
      <root>
        <mxCell id="0" />
        <mxCell id="1" parent="0" />
        <mxCell id="M2PHLK7hKL54nKBnCm3j-1" style="edgeStyle=orthogonalEdgeStyle;rounded=0;orthogonalLoop=1;jettySize=auto;html=1;exitX=1;exitY=0.25;exitDx=0;exitDy=0;entryX=0.5;entryY=0;entryDx=0;entryDy=0;" parent="1" source="I9NvBTg1W4nktKlsJl53-1" target="I9NvBTg1W4nktKlsJl53-3" edge="1">
          <mxGeometry relative="1" as="geometry" />
        </mxCell>
        <mxCell id="I9NvBTg1W4nktKlsJl53-1" value="&lt;font size=&quot;3&quot;&gt;cliente prueba&lt;/font&gt;" style="rounded=0;whiteSpace=wrap;html=1;" parent="1" vertex="1">
          <mxGeometry x="40" y="90" width="120" height="60" as="geometry" />
        </mxCell>
        <mxCell id="M2PHLK7hKL54nKBnCm3j-3" style="edgeStyle=orthogonalEdgeStyle;rounded=0;orthogonalLoop=1;jettySize=auto;html=1;exitX=1;exitY=0.25;exitDx=0;exitDy=0;entryX=0;entryY=1;entryDx=0;entryDy=0;" parent="1" source="I9NvBTg1W4nktKlsJl53-2" target="I9NvBTg1W4nktKlsJl53-3" edge="1">
          <mxGeometry relative="1" as="geometry" />
        </mxCell>
        <mxCell id="I9NvBTg1W4nktKlsJl53-2" value="&lt;font size=&quot;3&quot;&gt;cliente vip&lt;/font&gt;" style="rounded=0;whiteSpace=wrap;html=1;" parent="1" vertex="1">
          <mxGeometry x="40" y="310" width="120" height="60" as="geometry" />
        </mxCell>
        <mxCell id="M2PHLK7hKL54nKBnCm3j-2" style="edgeStyle=orthogonalEdgeStyle;rounded=0;orthogonalLoop=1;jettySize=auto;html=1;exitX=0;exitY=0;exitDx=0;exitDy=0;entryX=1;entryY=0.75;entryDx=0;entryDy=0;" parent="1" source="I9NvBTg1W4nktKlsJl53-3" target="I9NvBTg1W4nktKlsJl53-1" edge="1">
          <mxGeometry relative="1" as="geometry">
            <Array as="points">
              <mxPoint x="485" y="135" />
            </Array>
          </mxGeometry>
        </mxCell>
        <mxCell id="I9NvBTg1W4nktKlsJl53-3" value="&lt;font style=&quot;font-size: 18px;&quot;&gt;sistema de gestiÃ³n de finanzas&lt;/font&gt;" style="ellipse;whiteSpace=wrap;html=1;" parent="1" vertex="1">
          <mxGeometry x="460" y="170" width="170" height="90" as="geometry" />
        </mxCell>
        <mxCell id="I9NvBTg1W4nktKlsJl53-8" value="" style="endArrow=classic;html=1;rounded=0;exitX=0.5;exitY=1;exitDx=0;exitDy=0;entryX=1;entryY=0.75;entryDx=0;entryDy=0;" parent="1" source="I9NvBTg1W4nktKlsJl53-3" target="I9NvBTg1W4nktKlsJl53-2" edge="1">
          <mxGeometry width="50" height="50" relative="1" as="geometry">
            <mxPoint x="390" y="280" as="sourcePoint" />
            <mxPoint x="440" y="230" as="targetPoint" />
            <Array as="points">
              <mxPoint x="545" y="355" />
            </Array>
          </mxGeometry>
        </mxCell>
      </root>
    </mxGraphModel>
  </diagram>
  <diagram id="VyD5dL4a6C2Ei7q94EtZ" name="Nivel 0">
    <mxGraphModel dx="554" dy="328" grid="1" gridSize="10" guides="1" tooltips="1" connect="1" arrows="1" fold="1" page="1" pageScale="1" pageWidth="827" pageHeight="1169" math="0" shadow="0">
      <root>
        <mxCell id="0" />
        <mxCell id="1" parent="0" />
        <mxCell id="sbckC71rCuAO_DGWFnI9-1" style="edgeStyle=orthogonalEdgeStyle;rounded=0;orthogonalLoop=1;jettySize=auto;html=1;exitX=1;exitY=0.75;exitDx=0;exitDy=0;entryX=0;entryY=0.4;entryDx=0;entryDy=0;entryPerimeter=0;" parent="1" source="sbckC71rCuAO_DGWFnI9-2" target="sbckC71rCuAO_DGWFnI9-7" edge="1">
          <mxGeometry relative="1" as="geometry" />
        </mxCell>
        <mxCell id="sbckC71rCuAO_DGWFnI9-2" value="&lt;font style=&quot;font-size: 18px;&quot;&gt;Cliente Prueba&lt;/font&gt;" style="rounded=0;whiteSpace=wrap;html=1;" parent="1" vertex="1">
          <mxGeometry x="10" y="300" width="120" height="50" as="geometry" />
        </mxCell>
        <mxCell id="sbckC71rCuAO_DGWFnI9-3" style="edgeStyle=orthogonalEdgeStyle;rounded=0;orthogonalLoop=1;jettySize=auto;html=1;exitX=1;exitY=0.25;exitDx=0;exitDy=0;entryX=0;entryY=0.75;entryDx=0;entryDy=0;" parent="1" source="sbckC71rCuAO_DGWFnI9-4" target="sbckC71rCuAO_DGWFnI9-7" edge="1">
          <mxGeometry relative="1" as="geometry" />
        </mxCell>
        <mxCell id="sbckC71rCuAO_DGWFnI9-4" value="&lt;font style=&quot;font-size: 18px;&quot;&gt;Cliente Vip&lt;/font&gt;" style="rounded=0;whiteSpace=wrap;html=1;" parent="1" vertex="1">
          <mxGeometry x="10" y="670" width="120" height="40" as="geometry" />
        </mxCell>
        <mxCell id="sbckC71rCuAO_DGWFnI9-5" style="edgeStyle=orthogonalEdgeStyle;rounded=0;orthogonalLoop=1;jettySize=auto;html=1;exitX=0.75;exitY=1;exitDx=0;exitDy=0;" parent="1" source="sbckC71rCuAO_DGWFnI9-7" target="sbckC71rCuAO_DGWFnI9-10" edge="1">
          <mxGeometry relative="1" as="geometry" />
        </mxCell>
        <mxCell id="sbckC71rCuAO_DGWFnI9-6" style="edgeStyle=orthogonalEdgeStyle;rounded=0;orthogonalLoop=1;jettySize=auto;html=1;exitX=0.75;exitY=0;exitDx=0;exitDy=0;entryX=0.25;entryY=1;entryDx=0;entryDy=0;" parent="1" source="sbckC71rCuAO_DGWFnI9-7" target="sbckC71rCuAO_DGWFnI9-14" edge="1">
          <mxGeometry relative="1" as="geometry" />
        </mxCell>
        <mxCell id="sbckC71rCuAO_DGWFnI9-7" value="&lt;font style=&quot;font-size: 18px;&quot;&gt;1&lt;br&gt;Autenticacion&lt;/font&gt;" style="rounded=0;whiteSpace=wrap;html=1;" parent="1" vertex="1">
          <mxGeometry x="250" y="450" width="120" height="60" as="geometry" />
        </mxCell>
        <mxCell id="sbckC71rCuAO_DGWFnI9-8" value="Sistema de Gestion de Financia" style="swimlane;startSize=30;" parent="1" vertex="1">
          <mxGeometry x="220" y="200" width="580" height="580" as="geometry">
            <mxRectangle x="350" y="160" width="50" height="40" as="alternateBounds" />
          </mxGeometry>
        </mxCell>
        <mxCell id="HRp_05Nc40DNu4CVA_v0-3" style="edgeStyle=orthogonalEdgeStyle;rounded=0;orthogonalLoop=1;jettySize=auto;html=1;exitX=1;exitY=0.75;exitDx=0;exitDy=0;" edge="1" parent="sbckC71rCuAO_DGWFnI9-8" source="sbckC71rCuAO_DGWFnI9-10" target="Rzi84KlQj-G5zJfnIoEj-3">
          <mxGeometry relative="1" as="geometry" />
        </mxCell>
        <mxCell id="sbckC71rCuAO_DGWFnI9-10" value="&lt;font size=&quot;3&quot;&gt;3&lt;br&gt;Menu Vip&lt;/font&gt;" style="rounded=0;whiteSpace=wrap;html=1;" parent="sbckC71rCuAO_DGWFnI9-8" vertex="1">
          <mxGeometry x="80" y="500" width="120" height="50" as="geometry" />
        </mxCell>
        <mxCell id="sbckC71rCuAO_DGWFnI9-11" value="&lt;font size=&quot;3&quot;&gt;5&lt;br&gt;Informes Financiero Prueba&lt;/font&gt;" style="rounded=0;whiteSpace=wrap;html=1;" parent="sbckC71rCuAO_DGWFnI9-8" vertex="1">
          <mxGeometry x="194" y="270" width="156" height="60" as="geometry" />
        </mxCell>
        <mxCell id="sbckC71rCuAO_DGWFnI9-12" value="&lt;font style=&quot;font-size: 18px;&quot;&gt;4&lt;br&gt;Interactuar Con Menu Financias Prueba&lt;/font&gt;" style="rounded=0;whiteSpace=wrap;html=1;" parent="sbckC71rCuAO_DGWFnI9-8" vertex="1">
          <mxGeometry x="344" y="120" width="146" height="80" as="geometry" />
        </mxCell>
        <mxCell id="sbckC71rCuAO_DGWFnI9-14" value="&lt;font size=&quot;3&quot;&gt;2&lt;br&gt;Menu Prueba&lt;br&gt;&lt;/font&gt;" style="rounded=0;whiteSpace=wrap;html=1;" parent="sbckC71rCuAO_DGWFnI9-8" vertex="1">
          <mxGeometry x="80" y="110" width="120" height="40" as="geometry" />
        </mxCell>
        <mxCell id="sbckC71rCuAO_DGWFnI9-15" style="edgeStyle=orthogonalEdgeStyle;rounded=0;orthogonalLoop=1;jettySize=auto;html=1;exitX=1;exitY=0.5;exitDx=0;exitDy=0;" parent="sbckC71rCuAO_DGWFnI9-8" source="sbckC71rCuAO_DGWFnI9-14" target="sbckC71rCuAO_DGWFnI9-12" edge="1">
          <mxGeometry relative="1" as="geometry" />
        </mxCell>
        <mxCell id="Rzi84KlQj-G5zJfnIoEj-1" value="6&lt;br&gt;Interactuar con Menu Financias Vip" style="rounded=0;whiteSpace=wrap;html=1;" vertex="1" parent="sbckC71rCuAO_DGWFnI9-8">
          <mxGeometry x="220" y="400" width="120" height="60" as="geometry" />
        </mxCell>
        <mxCell id="Rzi84KlQj-G5zJfnIoEj-3" value="7&lt;br&gt;Informes Financieros Vip" style="rounded=0;whiteSpace=wrap;html=1;" vertex="1" parent="sbckC71rCuAO_DGWFnI9-8">
          <mxGeometry x="390" y="310" width="120" height="60" as="geometry" />
        </mxCell>
        <mxCell id="HRp_05Nc40DNu4CVA_v0-5" value="" style="endArrow=classic;startArrow=classic;html=1;rounded=0;entryX=0.75;entryY=1;entryDx=0;entryDy=0;" edge="1" parent="sbckC71rCuAO_DGWFnI9-8" target="sbckC71rCuAO_DGWFnI9-14">
          <mxGeometry width="50" height="50" relative="1" as="geometry">
            <mxPoint x="190" y="280" as="sourcePoint" />
            <mxPoint x="360" y="310" as="targetPoint" />
            <Array as="points">
              <mxPoint x="170" y="280" />
            </Array>
          </mxGeometry>
        </mxCell>
        <mxCell id="HRp_05Nc40DNu4CVA_v0-6" value="" style="endArrow=classic;startArrow=classic;html=1;rounded=0;exitX=1;exitY=0.25;exitDx=0;exitDy=0;entryX=0.75;entryY=1;entryDx=0;entryDy=0;" edge="1" parent="sbckC71rCuAO_DGWFnI9-8" source="sbckC71rCuAO_DGWFnI9-10" target="Rzi84KlQj-G5zJfnIoEj-1">
          <mxGeometry width="50" height="50" relative="1" as="geometry">
            <mxPoint x="310" y="390" as="sourcePoint" />
            <mxPoint x="360" y="340" as="targetPoint" />
            <Array as="points">
              <mxPoint x="310" y="513" />
            </Array>
          </mxGeometry>
        </mxCell>
        <mxCell id="sbckC71rCuAO_DGWFnI9-17" style="edgeStyle=orthogonalEdgeStyle;rounded=0;orthogonalLoop=1;jettySize=auto;html=1;exitX=0;exitY=0.25;exitDx=0;exitDy=0;entryX=1;entryY=0.25;entryDx=0;entryDy=0;" parent="1" source="sbckC71rCuAO_DGWFnI9-14" target="sbckC71rCuAO_DGWFnI9-2" edge="1">
          <mxGeometry relative="1" as="geometry">
            <Array as="points">
              <mxPoint x="200" y="350" />
              <mxPoint x="200" y="320" />
            </Array>
          </mxGeometry>
        </mxCell>
      </root>
    </mxGraphModel>
  </diagram>
  <diagram id="vCxZzZcwm7O3eCPD5rMW" name="Nivel 1 Menu Prueba">
    <mxGraphModel dx="592" dy="350" grid="1" gridSize="10" guides="1" tooltips="1" connect="1" arrows="1" fold="1" page="1" pageScale="1" pageWidth="827" pageHeight="1169" math="0" shadow="0">
      <root>
        <mxCell id="0" />
        <mxCell id="1" parent="0" />
        <mxCell id="AH1Nb0Yk1oe5IlmbxKM7-1" style="edgeStyle=orthogonalEdgeStyle;rounded=0;orthogonalLoop=1;jettySize=auto;html=1;exitX=0;exitY=0.25;exitDx=0;exitDy=0;entryX=1.033;entryY=0.65;entryDx=0;entryDy=0;entryPerimeter=0;" parent="1" source="AH1Nb0Yk1oe5IlmbxKM7-2" target="AH1Nb0Yk1oe5IlmbxKM7-8" edge="1">
          <mxGeometry relative="1" as="geometry" />
        </mxCell>
        <mxCell id="AH1Nb0Yk1oe5IlmbxKM7-2" value="Menu Prueba" style="swimlane;whiteSpace=wrap;html=1;startSize=23;" parent="1" vertex="1">
          <mxGeometry x="300" y="170" width="270" height="170" as="geometry" />
        </mxCell>
        <mxCell id="AH1Nb0Yk1oe5IlmbxKM7-3" style="edgeStyle=orthogonalEdgeStyle;rounded=0;orthogonalLoop=1;jettySize=auto;html=1;exitX=1;exitY=0.5;exitDx=0;exitDy=0;entryX=0.328;entryY=0.022;entryDx=0;entryDy=0;entryPerimeter=0;" parent="AH1Nb0Yk1oe5IlmbxKM7-2" source="AH1Nb0Yk1oe5IlmbxKM7-4" target="AH1Nb0Yk1oe5IlmbxKM7-5" edge="1">
          <mxGeometry relative="1" as="geometry" />
        </mxCell>
        <mxCell id="AH1Nb0Yk1oe5IlmbxKM7-4" value="2.1&lt;br&gt;Ingresa tus Financias" style="rounded=0;whiteSpace=wrap;html=1;" parent="AH1Nb0Yk1oe5IlmbxKM7-2" vertex="1">
          <mxGeometry x="10" y="30" width="120" height="40" as="geometry" />
        </mxCell>
        <mxCell id="AH1Nb0Yk1oe5IlmbxKM7-5" value="2.2&lt;br&gt;Ver tus Datos Financieros" style="rounded=0;whiteSpace=wrap;html=1;" parent="AH1Nb0Yk1oe5IlmbxKM7-2" vertex="1">
          <mxGeometry x="100" y="100" width="150" height="40" as="geometry" />
        </mxCell>
        <mxCell id="AH1Nb0Yk1oe5IlmbxKM7-6" style="edgeStyle=orthogonalEdgeStyle;rounded=0;orthogonalLoop=1;jettySize=auto;html=1;exitX=0;exitY=0.5;exitDx=0;exitDy=0;entryX=0;entryY=1;entryDx=0;entryDy=0;" parent="AH1Nb0Yk1oe5IlmbxKM7-2" source="AH1Nb0Yk1oe5IlmbxKM7-2" target="AH1Nb0Yk1oe5IlmbxKM7-4" edge="1">
          <mxGeometry relative="1" as="geometry" />
        </mxCell>
        <mxCell id="AH1Nb0Yk1oe5IlmbxKM7-7" style="edgeStyle=orthogonalEdgeStyle;rounded=0;orthogonalLoop=1;jettySize=auto;html=1;exitX=0.75;exitY=0;exitDx=0;exitDy=0;entryX=0;entryY=0.5;entryDx=0;entryDy=0;" parent="1" source="AH1Nb0Yk1oe5IlmbxKM7-8" target="AH1Nb0Yk1oe5IlmbxKM7-12" edge="1">
          <mxGeometry relative="1" as="geometry" />
        </mxCell>
        <mxCell id="AH1Nb0Yk1oe5IlmbxKM7-8" value="Cliente Prueba" style="rounded=0;whiteSpace=wrap;html=1;" parent="1" vertex="1">
          <mxGeometry x="120" y="200" width="120" height="20" as="geometry" />
        </mxCell>
        <mxCell id="AH1Nb0Yk1oe5IlmbxKM7-11" style="edgeStyle=orthogonalEdgeStyle;rounded=0;orthogonalLoop=1;jettySize=auto;html=1;exitX=0.75;exitY=1;exitDx=0;exitDy=0;entryX=0.159;entryY=-0.013;entryDx=0;entryDy=0;entryPerimeter=0;" parent="1" source="AH1Nb0Yk1oe5IlmbxKM7-12" target="AH1Nb0Yk1oe5IlmbxKM7-2" edge="1">
          <mxGeometry relative="1" as="geometry" />
        </mxCell>
        <mxCell id="AH1Nb0Yk1oe5IlmbxKM7-12" value="1&lt;br&gt;Autenticacion" style="rounded=0;whiteSpace=wrap;html=1;" parent="1" vertex="1">
          <mxGeometry x="250" y="110" width="120" height="30" as="geometry" />
        </mxCell>
        <mxCell id="AH1Nb0Yk1oe5IlmbxKM7-13" value="4&lt;br&gt;Interactuar con Menu Finanzas Prueba" style="rounded=0;whiteSpace=wrap;html=1;" parent="1" vertex="1">
          <mxGeometry x="630" y="170" width="120" height="60" as="geometry" />
        </mxCell>
        <mxCell id="AH1Nb0Yk1oe5IlmbxKM7-14" value="5&lt;br&gt;Informe Financiero Prueba" style="rounded=0;whiteSpace=wrap;html=1;" parent="1" vertex="1">
          <mxGeometry x="620" y="320" width="120" height="60" as="geometry" />
        </mxCell>
        <mxCell id="AH1Nb0Yk1oe5IlmbxKM7-15" style="edgeStyle=orthogonalEdgeStyle;rounded=0;orthogonalLoop=1;jettySize=auto;html=1;exitX=1;exitY=0.75;exitDx=0;exitDy=0;entryX=0.5;entryY=0;entryDx=0;entryDy=0;" parent="1" source="AH1Nb0Yk1oe5IlmbxKM7-5" target="AH1Nb0Yk1oe5IlmbxKM7-14" edge="1">
          <mxGeometry relative="1" as="geometry" />
        </mxCell>
        <mxCell id="AH1Nb0Yk1oe5IlmbxKM7-16" style="edgeStyle=orthogonalEdgeStyle;rounded=0;orthogonalLoop=1;jettySize=auto;html=1;exitX=1;exitY=0.25;exitDx=0;exitDy=0;" parent="1" source="AH1Nb0Yk1oe5IlmbxKM7-4" edge="1">
          <mxGeometry relative="1" as="geometry">
            <mxPoint x="630" y="210" as="targetPoint" />
          </mxGeometry>
        </mxCell>
      </root>
    </mxGraphModel>
  </diagram>
  <diagram id="pYfcgT72z6-pBsgClsF-" name="Nivel 1 Menu Vip">
    <mxGraphModel dx="859" dy="508" grid="1" gridSize="10" guides="1" tooltips="1" connect="1" arrows="1" fold="1" page="1" pageScale="1" pageWidth="827" pageHeight="1169" math="0" shadow="0">
      <root>
        <mxCell id="0" />
        <mxCell id="1" parent="0" />
        <mxCell id="QncermeK1y-TTVHY89n2-3" style="edgeStyle=orthogonalEdgeStyle;rounded=0;orthogonalLoop=1;jettySize=auto;html=1;exitX=0;exitY=0.25;exitDx=0;exitDy=0;entryX=0;entryY=0.5;entryDx=0;entryDy=0;" parent="1" source="QncermeK1y-TTVHY89n2-4" target="QncermeK1y-TTVHY89n2-12" edge="1">
          <mxGeometry relative="1" as="geometry" />
        </mxCell>
        <mxCell id="QncermeK1y-TTVHY89n2-4" value="Cliente Vip" style="rounded=0;whiteSpace=wrap;html=1;" parent="1" vertex="1">
          <mxGeometry x="40" y="610" width="110" height="20" as="geometry" />
        </mxCell>
        <mxCell id="QncermeK1y-TTVHY89n2-5" style="edgeStyle=orthogonalEdgeStyle;rounded=0;orthogonalLoop=1;jettySize=auto;html=1;exitX=0;exitY=0.75;exitDx=0;exitDy=0;" parent="1" source="QncermeK1y-TTVHY89n2-6" edge="1">
          <mxGeometry relative="1" as="geometry">
            <mxPoint x="150" y="620" as="targetPoint" />
          </mxGeometry>
        </mxCell>
        <mxCell id="QncermeK1y-TTVHY89n2-6" value="Menu Vip" style="swimlane;whiteSpace=wrap;html=1;" parent="1" vertex="1">
          <mxGeometry x="190" y="495" width="320" height="180" as="geometry" />
        </mxCell>
        <mxCell id="QncermeK1y-TTVHY89n2-7" value="3.2&lt;br&gt;Ver Datos Financieros AVANZADOS" style="rounded=0;whiteSpace=wrap;html=1;" parent="QncermeK1y-TTVHY89n2-6" vertex="1">
          <mxGeometry x="170" y="110" width="130" height="60" as="geometry" />
        </mxCell>
        <mxCell id="QncermeK1y-TTVHY89n2-8" style="edgeStyle=orthogonalEdgeStyle;rounded=0;orthogonalLoop=1;jettySize=auto;html=1;exitX=1;exitY=0.5;exitDx=0;exitDy=0;entryX=0;entryY=0.25;entryDx=0;entryDy=0;" parent="QncermeK1y-TTVHY89n2-6" source="QncermeK1y-TTVHY89n2-9" target="QncermeK1y-TTVHY89n2-7" edge="1">
          <mxGeometry relative="1" as="geometry" />
        </mxCell>
        <mxCell id="QncermeK1y-TTVHY89n2-9" value="3.1&lt;br&gt;Ingresar tus Datos Financieros mas Detallado" style="rounded=0;whiteSpace=wrap;html=1;" parent="QncermeK1y-TTVHY89n2-6" vertex="1">
          <mxGeometry x="20" y="30" width="120" height="60" as="geometry" />
        </mxCell>
        <mxCell id="QncermeK1y-TTVHY89n2-10" style="edgeStyle=orthogonalEdgeStyle;rounded=0;orthogonalLoop=1;jettySize=auto;html=1;exitX=0;exitY=0.25;exitDx=0;exitDy=0;entryX=0;entryY=0.25;entryDx=0;entryDy=0;" parent="QncermeK1y-TTVHY89n2-6" source="QncermeK1y-TTVHY89n2-6" target="QncermeK1y-TTVHY89n2-9" edge="1">
          <mxGeometry relative="1" as="geometry" />
        </mxCell>
        <mxCell id="QncermeK1y-TTVHY89n2-11" style="edgeStyle=orthogonalEdgeStyle;rounded=0;orthogonalLoop=1;jettySize=auto;html=1;exitX=1;exitY=0.75;exitDx=0;exitDy=0;entryX=0.356;entryY=0.01;entryDx=0;entryDy=0;entryPerimeter=0;" parent="1" source="QncermeK1y-TTVHY89n2-12" target="QncermeK1y-TTVHY89n2-6" edge="1">
          <mxGeometry relative="1" as="geometry" />
        </mxCell>
        <mxCell id="QncermeK1y-TTVHY89n2-12" value="1&lt;br&gt;autenticacion" style="rounded=0;whiteSpace=wrap;html=1;" parent="1" vertex="1">
          <mxGeometry x="130" y="420" width="120" height="30" as="geometry" />
        </mxCell>
        <mxCell id="QncermeK1y-TTVHY89n2-13" value="6&lt;br&gt;interactuar con menu financias vip" style="rounded=0;whiteSpace=wrap;html=1;" parent="1" vertex="1">
          <mxGeometry x="550" y="450" width="110" height="50" as="geometry" />
        </mxCell>
        <mxCell id="QncermeK1y-TTVHY89n2-14" value="7&lt;br&gt;informe financiero vip" style="rounded=0;whiteSpace=wrap;html=1;" parent="1" vertex="1">
          <mxGeometry x="570" y="560" width="100" height="50" as="geometry" />
        </mxCell>
        <mxCell id="QncermeK1y-TTVHY89n2-15" style="edgeStyle=orthogonalEdgeStyle;rounded=0;orthogonalLoop=1;jettySize=auto;html=1;exitX=1;exitY=0.25;exitDx=0;exitDy=0;entryX=0.25;entryY=1;entryDx=0;entryDy=0;" parent="1" source="QncermeK1y-TTVHY89n2-9" target="QncermeK1y-TTVHY89n2-13" edge="1">
          <mxGeometry relative="1" as="geometry" />
        </mxCell>
        <mxCell id="QncermeK1y-TTVHY89n2-16" style="edgeStyle=orthogonalEdgeStyle;rounded=0;orthogonalLoop=1;jettySize=auto;html=1;exitX=1;exitY=0.5;exitDx=0;exitDy=0;entryX=0.5;entryY=1;entryDx=0;entryDy=0;" parent="1" source="QncermeK1y-TTVHY89n2-7" target="QncermeK1y-TTVHY89n2-14" edge="1">
          <mxGeometry relative="1" as="geometry" />
        </mxCell>
      </root>
    </mxGraphModel>
  </diagram>
  <diagram id="hkyPFrBz7w7l2lDFgfLT" name="Nivel 1 Interactuar con Menu Financias Prueba">
    <mxGraphModel dx="859" dy="508" grid="1" gridSize="10" guides="1" tooltips="1" connect="1" arrows="1" fold="1" page="1" pageScale="1" pageWidth="827" pageHeight="1169" math="0" shadow="0">
      <root>
        <mxCell id="0" />
        <mxCell id="1" parent="0" />
        <mxCell id="z1rMefFHQP832s2CJt1W-3" style="edgeStyle=orthogonalEdgeStyle;rounded=0;orthogonalLoop=1;jettySize=auto;html=1;exitX=0.5;exitY=0;exitDx=0;exitDy=0;entryX=0.195;entryY=1.126;entryDx=0;entryDy=0;entryPerimeter=0;" parent="1" source="z1rMefFHQP832s2CJt1W-4" target="z1rMefFHQP832s2CJt1W-9" edge="1">
          <mxGeometry relative="1" as="geometry" />
        </mxCell>
        <mxCell id="z1rMefFHQP832s2CJt1W-4" value="Cliente Prueba" style="rounded=0;whiteSpace=wrap;html=1;" parent="1" vertex="1">
          <mxGeometry x="20" y="572" width="100" height="25" as="geometry" />
        </mxCell>
        <mxCell id="z1rMefFHQP832s2CJt1W-6" value="&lt;span style=&quot;font-weight: 400;&quot;&gt;Interactuar con Menu Financias Prueba&lt;/span&gt;" style="swimlane;whiteSpace=wrap;html=1;" parent="1" vertex="1">
          <mxGeometry x="190" y="550" width="320" height="200" as="geometry" />
        </mxCell>
        <mxCell id="JAr05mWtJ7C2xB2lxNpb-1" style="edgeStyle=orthogonalEdgeStyle;rounded=0;orthogonalLoop=1;jettySize=auto;html=1;exitX=1;exitY=0.5;exitDx=0;exitDy=0;entryX=0.5;entryY=0;entryDx=0;entryDy=0;" edge="1" parent="z1rMefFHQP832s2CJt1W-6" source="zLfgwtrImx28CXgOFLpw-1" target="zLfgwtrImx28CXgOFLpw-3">
          <mxGeometry relative="1" as="geometry" />
        </mxCell>
        <mxCell id="zLfgwtrImx28CXgOFLpw-1" value="5.1&lt;br&gt;&lt;span style=&quot;color: rgb(240, 240, 240); font-family: Helvetica; font-size: 12px; font-style: normal; font-variant-ligatures: normal; font-variant-caps: normal; font-weight: 400; letter-spacing: normal; orphans: 2; text-align: center; text-indent: 0px; text-transform: none; widows: 2; word-spacing: 0px; -webkit-text-stroke-width: 0px; background-color: rgb(42, 37, 47); text-decoration-thickness: initial; text-decoration-style: initial; text-decoration-color: initial; float: none; display: inline !important;&quot;&gt;AÃ±ade Ingresos&lt;/span&gt;" style="rounded=0;whiteSpace=wrap;html=1;" vertex="1" parent="z1rMefFHQP832s2CJt1W-6">
          <mxGeometry x="10" y="35" width="100" height="40" as="geometry" />
        </mxCell>
        <mxCell id="JAr05mWtJ7C2xB2lxNpb-2" style="edgeStyle=orthogonalEdgeStyle;rounded=0;orthogonalLoop=1;jettySize=auto;html=1;exitX=1;exitY=0.5;exitDx=0;exitDy=0;entryX=0.5;entryY=1;entryDx=0;entryDy=0;" edge="1" parent="z1rMefFHQP832s2CJt1W-6" source="zLfgwtrImx28CXgOFLpw-2" target="zLfgwtrImx28CXgOFLpw-3">
          <mxGeometry relative="1" as="geometry" />
        </mxCell>
        <mxCell id="zLfgwtrImx28CXgOFLpw-2" value="5.2&lt;br&gt;AÃ±ade Ingreso" style="rounded=0;whiteSpace=wrap;html=1;" vertex="1" parent="z1rMefFHQP832s2CJt1W-6">
          <mxGeometry x="10" y="130" width="100" height="40" as="geometry" />
        </mxCell>
        <mxCell id="zLfgwtrImx28CXgOFLpw-3" value="5.3&lt;br&gt;Ver Informe Financiero&amp;nbsp;&lt;br&gt;BASICO" style="rounded=0;whiteSpace=wrap;html=1;" vertex="1" parent="z1rMefFHQP832s2CJt1W-6">
          <mxGeometry x="170" y="60" width="120" height="60" as="geometry" />
        </mxCell>
        <mxCell id="0Ua9UmWFr5amdgi4KrRd-1" style="edgeStyle=orthogonalEdgeStyle;rounded=0;orthogonalLoop=1;jettySize=auto;html=1;exitX=1;exitY=0.5;exitDx=0;exitDy=0;entryX=0.25;entryY=1;entryDx=0;entryDy=0;" parent="1" source="z1rMefFHQP832s2CJt1W-9" target="z1rMefFHQP832s2CJt1W-21" edge="1">
          <mxGeometry relative="1" as="geometry" />
        </mxCell>
        <mxCell id="z1rMefFHQP832s2CJt1W-9" value="1&lt;br&gt;Autenticacion" style="rounded=0;whiteSpace=wrap;html=1;" parent="1" vertex="1">
          <mxGeometry x="100" y="470" width="100" height="30" as="geometry" />
        </mxCell>
        <mxCell id="z1rMefFHQP832s2CJt1W-17" value="5&lt;br&gt;Informe Financias Prueba" style="rounded=0;whiteSpace=wrap;html=1;" parent="1" vertex="1">
          <mxGeometry x="490" y="470" width="100" height="40" as="geometry" />
        </mxCell>
        <mxCell id="0Ua9UmWFr5amdgi4KrRd-2" style="edgeStyle=orthogonalEdgeStyle;rounded=0;orthogonalLoop=1;jettySize=auto;html=1;exitX=0;exitY=0.25;exitDx=0;exitDy=0;entryX=0.25;entryY=0;entryDx=0;entryDy=0;" parent="1" source="z1rMefFHQP832s2CJt1W-21" target="z1rMefFHQP832s2CJt1W-4" edge="1">
          <mxGeometry relative="1" as="geometry" />
        </mxCell>
        <mxCell id="0Ua9UmWFr5amdgi4KrRd-3" style="edgeStyle=orthogonalEdgeStyle;rounded=0;orthogonalLoop=1;jettySize=auto;html=1;exitX=0.5;exitY=1;exitDx=0;exitDy=0;entryX=0.409;entryY=0;entryDx=0;entryDy=0;entryPerimeter=0;" parent="1" source="z1rMefFHQP832s2CJt1W-21" target="z1rMefFHQP832s2CJt1W-6" edge="1">
          <mxGeometry relative="1" as="geometry" />
        </mxCell>
        <mxCell id="0Ua9UmWFr5amdgi4KrRd-4" style="edgeStyle=orthogonalEdgeStyle;rounded=0;orthogonalLoop=1;jettySize=auto;html=1;exitX=1;exitY=0.5;exitDx=0;exitDy=0;entryX=0.25;entryY=0;entryDx=0;entryDy=0;" parent="1" source="z1rMefFHQP832s2CJt1W-21" target="z1rMefFHQP832s2CJt1W-17" edge="1">
          <mxGeometry relative="1" as="geometry" />
        </mxCell>
        <mxCell id="z1rMefFHQP832s2CJt1W-21" value="2&lt;br&gt;Menu Prueba" style="rounded=0;whiteSpace=wrap;html=1;" parent="1" vertex="1">
          <mxGeometry x="270" y="410" width="100" height="30" as="geometry" />
        </mxCell>
        <mxCell id="JAr05mWtJ7C2xB2lxNpb-3" style="edgeStyle=orthogonalEdgeStyle;rounded=0;orthogonalLoop=1;jettySize=auto;html=1;exitX=1;exitY=0.5;exitDx=0;exitDy=0;entryX=0.62;entryY=1.075;entryDx=0;entryDy=0;entryPerimeter=0;" edge="1" parent="1" source="zLfgwtrImx28CXgOFLpw-3" target="z1rMefFHQP832s2CJt1W-17">
          <mxGeometry relative="1" as="geometry" />
        </mxCell>
      </root>
    </mxGraphModel>
  </diagram>
  <diagram id="1kATkHfRTrTqRrPnm3jX" name="Nivel 1 interactuar con menu financias vip">
    <mxGraphModel dx="859" dy="508" grid="1" gridSize="10" guides="1" tooltips="1" connect="1" arrows="1" fold="1" page="1" pageScale="1" pageWidth="827" pageHeight="1169" math="0" shadow="0">
      <root>
        <mxCell id="0" />
        <mxCell id="1" parent="0" />
        <mxCell id="NjxmHhe7hmZxzo3zn9UJ-1" style="edgeStyle=orthogonalEdgeStyle;rounded=0;orthogonalLoop=1;jettySize=auto;html=1;exitX=0.5;exitY=0;exitDx=0;exitDy=0;entryX=0.195;entryY=1.126;entryDx=0;entryDy=0;entryPerimeter=0;" parent="1" source="NjxmHhe7hmZxzo3zn9UJ-2" target="NjxmHhe7hmZxzo3zn9UJ-6" edge="1">
          <mxGeometry relative="1" as="geometry" />
        </mxCell>
        <mxCell id="NjxmHhe7hmZxzo3zn9UJ-2" value="cliente vip" style="rounded=0;whiteSpace=wrap;html=1;" parent="1" vertex="1">
          <mxGeometry x="20" y="572" width="100" height="25" as="geometry" />
        </mxCell>
        <mxCell id="NjxmHhe7hmZxzo3zn9UJ-3" value="&lt;span style=&quot;font-weight: 400;&quot;&gt;interactuar con menu financias vip&lt;/span&gt;" style="swimlane;whiteSpace=wrap;html=1;" parent="1" vertex="1">
          <mxGeometry x="200" y="540" width="360" height="220" as="geometry" />
        </mxCell>
        <mxCell id="dWb4_ZXVhLEddZxJiSw8-14" style="edgeStyle=orthogonalEdgeStyle;rounded=0;orthogonalLoop=1;jettySize=auto;html=1;exitX=1;exitY=0.25;exitDx=0;exitDy=0;" edge="1" parent="NjxmHhe7hmZxzo3zn9UJ-3" source="dWb4_ZXVhLEddZxJiSw8-3" target="dWb4_ZXVhLEddZxJiSw8-8">
          <mxGeometry relative="1" as="geometry" />
        </mxCell>
        <mxCell id="dWb4_ZXVhLEddZxJiSw8-3" value="6.1&lt;br&gt;Realizar Presupuesto" style="rounded=0;whiteSpace=wrap;html=1;" vertex="1" parent="NjxmHhe7hmZxzo3zn9UJ-3">
          <mxGeometry x="10" y="30" width="110" height="42.5" as="geometry" />
        </mxCell>
        <mxCell id="dWb4_ZXVhLEddZxJiSw8-12" style="edgeStyle=orthogonalEdgeStyle;rounded=0;orthogonalLoop=1;jettySize=auto;html=1;exitX=1;exitY=0.25;exitDx=0;exitDy=0;entryX=0;entryY=1;entryDx=0;entryDy=0;" edge="1" parent="NjxmHhe7hmZxzo3zn9UJ-3" source="dWb4_ZXVhLEddZxJiSw8-4" target="dWb4_ZXVhLEddZxJiSw8-8">
          <mxGeometry relative="1" as="geometry">
            <Array as="points">
              <mxPoint x="200" y="180" />
              <mxPoint x="200" y="95" />
            </Array>
          </mxGeometry>
        </mxCell>
        <mxCell id="dWb4_ZXVhLEddZxJiSw8-4" value="&lt;span style=&quot;color: rgb(240, 240, 240); font-family: Helvetica; font-size: 12px; font-style: normal; font-variant-ligatures: normal; font-variant-caps: normal; font-weight: 400; letter-spacing: normal; orphans: 2; text-align: center; text-indent: 0px; text-transform: none; widows: 2; word-spacing: 0px; -webkit-text-stroke-width: 0px; background-color: rgb(42, 37, 47); text-decoration-thickness: initial; text-decoration-style: initial; text-decoration-color: initial; float: none; display: inline !important;&quot;&gt;6.2&lt;/span&gt;&lt;br style=&quot;border-color: rgb(0, 0, 0); color: rgb(240, 240, 240); font-family: Helvetica; font-size: 12px; font-style: normal; font-variant-ligatures: normal; font-variant-caps: normal; font-weight: 400; letter-spacing: normal; orphans: 2; text-align: center; text-indent: 0px; text-transform: none; widows: 2; word-spacing: 0px; -webkit-text-stroke-width: 0px; background-color: rgb(42, 37, 47); text-decoration-thickness: initial; text-decoration-style: initial; text-decoration-color: initial;&quot;&gt;&lt;span style=&quot;color: rgb(240, 240, 240); font-family: Helvetica; font-size: 12px; font-style: normal; font-variant-ligatures: normal; font-variant-caps: normal; font-weight: 400; letter-spacing: normal; orphans: 2; text-align: center; text-indent: 0px; text-transform: none; widows: 2; word-spacing: 0px; -webkit-text-stroke-width: 0px; background-color: rgb(42, 37, 47); text-decoration-thickness: initial; text-decoration-style: initial; text-decoration-color: initial; float: none; display: inline !important;&quot;&gt;Realizar Planificado&lt;/span&gt;" style="rounded=0;whiteSpace=wrap;html=1;" vertex="1" parent="NjxmHhe7hmZxzo3zn9UJ-3">
          <mxGeometry x="10" y="170" width="110" height="40" as="geometry" />
        </mxCell>
        <mxCell id="dWb4_ZXVhLEddZxJiSw8-10" style="edgeStyle=orthogonalEdgeStyle;rounded=0;orthogonalLoop=1;jettySize=auto;html=1;exitX=1;exitY=0.5;exitDx=0;exitDy=0;entryX=0;entryY=0.75;entryDx=0;entryDy=0;" edge="1" parent="NjxmHhe7hmZxzo3zn9UJ-3" source="dWb4_ZXVhLEddZxJiSw8-5" target="dWb4_ZXVhLEddZxJiSw8-8">
          <mxGeometry relative="1" as="geometry" />
        </mxCell>
        <mxCell id="dWb4_ZXVhLEddZxJiSw8-5" value="&lt;span style=&quot;color: rgb(240, 240, 240); font-family: Helvetica; font-size: 12px; font-style: normal; font-variant-ligatures: normal; font-variant-caps: normal; font-weight: 400; letter-spacing: normal; orphans: 2; text-align: center; text-indent: 0px; text-transform: none; widows: 2; word-spacing: 0px; -webkit-text-stroke-width: 0px; background-color: rgb(42, 37, 47); text-decoration-thickness: initial; text-decoration-style: initial; text-decoration-color: initial; float: none; display: inline !important;&quot;&gt;6.3&lt;/span&gt;&lt;br style=&quot;border-color: rgb(0, 0, 0); color: rgb(240, 240, 240); font-family: Helvetica; font-size: 12px; font-style: normal; font-variant-ligatures: normal; font-variant-caps: normal; font-weight: 400; letter-spacing: normal; orphans: 2; text-align: center; text-indent: 0px; text-transform: none; widows: 2; word-spacing: 0px; -webkit-text-stroke-width: 0px; background-color: rgb(42, 37, 47); text-decoration-thickness: initial; text-decoration-style: initial; text-decoration-color: initial;&quot;&gt;&lt;span style=&quot;color: rgb(240, 240, 240); font-family: Helvetica; font-size: 12px; font-style: normal; font-variant-ligatures: normal; font-variant-caps: normal; font-weight: 400; letter-spacing: normal; orphans: 2; text-align: center; text-indent: 0px; text-transform: none; widows: 2; word-spacing: 0px; -webkit-text-stroke-width: 0px; background-color: rgb(42, 37, 47); text-decoration-thickness: initial; text-decoration-style: initial; text-decoration-color: initial; float: none; display: inline !important;&quot;&gt;AÃ±ade Ingreso&lt;/span&gt;" style="rounded=0;whiteSpace=wrap;html=1;" vertex="1" parent="NjxmHhe7hmZxzo3zn9UJ-3">
          <mxGeometry x="20" y="95" width="100" height="40" as="geometry" />
        </mxCell>
        <mxCell id="dWb4_ZXVhLEddZxJiSw8-13" style="edgeStyle=orthogonalEdgeStyle;rounded=0;orthogonalLoop=1;jettySize=auto;html=1;exitX=0.75;exitY=0;exitDx=0;exitDy=0;" edge="1" parent="NjxmHhe7hmZxzo3zn9UJ-3" source="dWb4_ZXVhLEddZxJiSw8-7" target="dWb4_ZXVhLEddZxJiSw8-8">
          <mxGeometry relative="1" as="geometry" />
        </mxCell>
        <mxCell id="dWb4_ZXVhLEddZxJiSw8-7" value="&lt;span style=&quot;color: rgb(240, 240, 240); font-family: Helvetica; font-size: 12px; font-style: normal; font-variant-ligatures: normal; font-variant-caps: normal; font-weight: 400; letter-spacing: normal; orphans: 2; text-align: center; text-indent: 0px; text-transform: none; widows: 2; word-spacing: 0px; -webkit-text-stroke-width: 0px; background-color: rgb(42, 37, 47); text-decoration-thickness: initial; text-decoration-style: initial; text-decoration-color: initial; float: none; display: inline !important;&quot;&gt;6.4&lt;/span&gt;&lt;br style=&quot;border-color: rgb(0, 0, 0); color: rgb(240, 240, 240); font-family: Helvetica; font-size: 12px; font-style: normal; font-variant-ligatures: normal; font-variant-caps: normal; font-weight: 400; letter-spacing: normal; orphans: 2; text-align: center; text-indent: 0px; text-transform: none; widows: 2; word-spacing: 0px; -webkit-text-stroke-width: 0px; background-color: rgb(42, 37, 47); text-decoration-thickness: initial; text-decoration-style: initial; text-decoration-color: initial;&quot;&gt;&lt;span style=&quot;color: rgb(240, 240, 240); font-family: Helvetica; font-size: 12px; font-style: normal; font-variant-ligatures: normal; font-variant-caps: normal; font-weight: 400; letter-spacing: normal; orphans: 2; text-align: center; text-indent: 0px; text-transform: none; widows: 2; word-spacing: 0px; -webkit-text-stroke-width: 0px; background-color: rgb(42, 37, 47); text-decoration-thickness: initial; text-decoration-style: initial; text-decoration-color: initial; float: none; display: inline !important;&quot;&gt;AÃ±ade Egreso&lt;/span&gt;" style="rounded=0;whiteSpace=wrap;html=1;" vertex="1" parent="NjxmHhe7hmZxzo3zn9UJ-3">
          <mxGeometry x="230" y="175" width="100" height="35" as="geometry" />
        </mxCell>
        <mxCell id="dWb4_ZXVhLEddZxJiSw8-8" value="&lt;span style=&quot;color: rgb(240, 240, 240); font-family: Helvetica; font-size: 12px; font-style: normal; font-variant-ligatures: normal; font-variant-caps: normal; font-weight: 400; letter-spacing: normal; orphans: 2; text-align: center; text-indent: 0px; text-transform: none; widows: 2; word-spacing: 0px; -webkit-text-stroke-width: 0px; background-color: rgb(42, 37, 47); text-decoration-thickness: initial; text-decoration-style: initial; text-decoration-color: initial; float: none; display: inline !important;&quot;&gt;6.5&lt;/span&gt;&lt;br style=&quot;border-color: rgb(0, 0, 0); color: rgb(240, 240, 240); font-family: Helvetica; font-size: 12px; font-style: normal; font-variant-ligatures: normal; font-variant-caps: normal; font-weight: 400; letter-spacing: normal; orphans: 2; text-align: center; text-indent: 0px; text-transform: none; widows: 2; word-spacing: 0px; -webkit-text-stroke-width: 0px; background-color: rgb(42, 37, 47); text-decoration-thickness: initial; text-decoration-style: initial; text-decoration-color: initial;&quot;&gt;&lt;span style=&quot;color: rgb(240, 240, 240); font-family: Helvetica; font-size: 12px; font-style: normal; font-variant-ligatures: normal; font-variant-caps: normal; font-weight: 400; letter-spacing: normal; orphans: 2; text-align: center; text-indent: 0px; text-transform: none; widows: 2; word-spacing: 0px; -webkit-text-stroke-width: 0px; background-color: rgb(42, 37, 47); text-decoration-thickness: initial; text-decoration-style: initial; text-decoration-color: initial; float: none; display: inline !important;&quot;&gt;Ver Informe Financiero AVANZADO&lt;/span&gt;" style="rounded=0;whiteSpace=wrap;html=1;" vertex="1" parent="NjxmHhe7hmZxzo3zn9UJ-3">
          <mxGeometry x="230" y="35" width="120" height="60" as="geometry" />
        </mxCell>
        <mxCell id="NjxmHhe7hmZxzo3zn9UJ-5" style="edgeStyle=orthogonalEdgeStyle;rounded=0;orthogonalLoop=1;jettySize=auto;html=1;exitX=1;exitY=0.5;exitDx=0;exitDy=0;entryX=0.25;entryY=1;entryDx=0;entryDy=0;" parent="1" source="NjxmHhe7hmZxzo3zn9UJ-6" target="NjxmHhe7hmZxzo3zn9UJ-11" edge="1">
          <mxGeometry relative="1" as="geometry" />
        </mxCell>
        <mxCell id="NjxmHhe7hmZxzo3zn9UJ-6" value="1&lt;br&gt;autenticacion" style="rounded=0;whiteSpace=wrap;html=1;" parent="1" vertex="1">
          <mxGeometry x="100" y="470" width="100" height="30" as="geometry" />
        </mxCell>
        <mxCell id="NjxmHhe7hmZxzo3zn9UJ-7" value="7&lt;br&gt;informe financias vip" style="rounded=0;whiteSpace=wrap;html=1;" parent="1" vertex="1">
          <mxGeometry x="490" y="460" width="100" height="50" as="geometry" />
        </mxCell>
        <mxCell id="NjxmHhe7hmZxzo3zn9UJ-8" style="edgeStyle=orthogonalEdgeStyle;rounded=0;orthogonalLoop=1;jettySize=auto;html=1;exitX=0;exitY=0.25;exitDx=0;exitDy=0;entryX=0.25;entryY=0;entryDx=0;entryDy=0;" parent="1" source="NjxmHhe7hmZxzo3zn9UJ-11" target="NjxmHhe7hmZxzo3zn9UJ-2" edge="1">
          <mxGeometry relative="1" as="geometry" />
        </mxCell>
        <mxCell id="NjxmHhe7hmZxzo3zn9UJ-9" style="edgeStyle=orthogonalEdgeStyle;rounded=0;orthogonalLoop=1;jettySize=auto;html=1;exitX=0.5;exitY=1;exitDx=0;exitDy=0;entryX=0.409;entryY=0;entryDx=0;entryDy=0;entryPerimeter=0;" parent="1" source="NjxmHhe7hmZxzo3zn9UJ-11" target="NjxmHhe7hmZxzo3zn9UJ-3" edge="1">
          <mxGeometry relative="1" as="geometry" />
        </mxCell>
        <mxCell id="NjxmHhe7hmZxzo3zn9UJ-10" style="edgeStyle=orthogonalEdgeStyle;rounded=0;orthogonalLoop=1;jettySize=auto;html=1;exitX=1;exitY=0.5;exitDx=0;exitDy=0;entryX=0.25;entryY=0;entryDx=0;entryDy=0;" parent="1" source="NjxmHhe7hmZxzo3zn9UJ-11" target="NjxmHhe7hmZxzo3zn9UJ-7" edge="1">
          <mxGeometry relative="1" as="geometry" />
        </mxCell>
        <mxCell id="NjxmHhe7hmZxzo3zn9UJ-11" value="3&lt;br&gt;menu vip" style="rounded=0;whiteSpace=wrap;html=1;" parent="1" vertex="1">
          <mxGeometry x="270" y="410" width="100" height="30" as="geometry" />
        </mxCell>
      </root>
    </mxGraphModel>
  </diagram>
  <diagram id="OxMignH7T46T5nwzgMhS" name="Nivel 1 Informe Financiero Vip">
    <mxGraphModel dx="859" dy="508" grid="1" gridSize="10" guides="1" tooltips="1" connect="1" arrows="1" fold="1" page="1" pageScale="1" pageWidth="827" pageHeight="1169" math="0" shadow="0">
      <root>
        <mxCell id="0" />
        <mxCell id="1" parent="0" />
        <mxCell id="Vv51enaofSrraiG2ErQz-10" style="edgeStyle=orthogonalEdgeStyle;rounded=0;orthogonalLoop=1;jettySize=auto;html=1;exitX=1;exitY=0.5;exitDx=0;exitDy=0;entryX=0.7;entryY=1.075;entryDx=0;entryDy=0;entryPerimeter=0;" parent="1" source="Vv51enaofSrraiG2ErQz-2" target="Vv51enaofSrraiG2ErQz-5" edge="1">
          <mxGeometry relative="1" as="geometry" />
        </mxCell>
        <mxCell id="Vv51enaofSrraiG2ErQz-2" value="Cliente Vip" style="rounded=0;whiteSpace=wrap;html=1;" parent="1" vertex="1">
          <mxGeometry x="20" y="535" width="120" height="40" as="geometry" />
        </mxCell>
        <mxCell id="Vv51enaofSrraiG2ErQz-3" value="Informe Financiero Vip" style="swimlane;whiteSpace=wrap;html=1;startSize=23;" parent="1" vertex="1">
          <mxGeometry x="270" y="450" width="340" height="210" as="geometry" />
        </mxCell>
        <mxCell id="6qRMDX0OVfo3dnrcfo4g-1" value="7.1&lt;br&gt;Resumen Ingresos" style="rounded=0;whiteSpace=wrap;html=1;" vertex="1" parent="Vv51enaofSrraiG2ErQz-3">
          <mxGeometry x="10" y="30" width="110" height="40" as="geometry" />
        </mxCell>
        <mxCell id="JY_uEWCxp91e7D8w6J24-1" value="7.2&lt;br&gt;Resumen Gastos" style="rounded=0;whiteSpace=wrap;html=1;" vertex="1" parent="Vv51enaofSrraiG2ErQz-3">
          <mxGeometry x="15" y="90" width="110" height="35" as="geometry" />
        </mxCell>
        <mxCell id="JY_uEWCxp91e7D8w6J24-2" value="7.3&lt;br&gt;Situacion Financiera" style="rounded=0;whiteSpace=wrap;html=1;" vertex="1" parent="Vv51enaofSrraiG2ErQz-3">
          <mxGeometry x="10" y="150" width="120" height="30" as="geometry" />
        </mxCell>
        <mxCell id="JY_uEWCxp91e7D8w6J24-3" value="7.4&lt;br&gt;Rendimiento Financiero" style="rounded=0;whiteSpace=wrap;html=1;" vertex="1" parent="Vv51enaofSrraiG2ErQz-3">
          <mxGeometry x="200" y="120" width="110" height="50" as="geometry" />
        </mxCell>
        <mxCell id="JY_uEWCxp91e7D8w6J24-4" value="7.5&lt;br&gt;Calendario" style="rounded=0;whiteSpace=wrap;html=1;" vertex="1" parent="Vv51enaofSrraiG2ErQz-3">
          <mxGeometry x="190" y="50" width="94" height="30" as="geometry" />
        </mxCell>
        <mxCell id="Vv51enaofSrraiG2ErQz-12" style="edgeStyle=orthogonalEdgeStyle;rounded=0;orthogonalLoop=1;jettySize=auto;html=1;exitX=1;exitY=0.5;exitDx=0;exitDy=0;entryX=0;entryY=0.5;entryDx=0;entryDy=0;" parent="1" source="Vv51enaofSrraiG2ErQz-5" target="Vv51enaofSrraiG2ErQz-7" edge="1">
          <mxGeometry relative="1" as="geometry" />
        </mxCell>
        <mxCell id="Vv51enaofSrraiG2ErQz-5" value="1&lt;br&gt;Autenticacion" style="rounded=0;whiteSpace=wrap;html=1;" parent="1" vertex="1">
          <mxGeometry x="80" y="420" width="120" height="40" as="geometry" />
        </mxCell>
        <mxCell id="hepGvNgpnN6SAPeKUcIN-1" style="edgeStyle=orthogonalEdgeStyle;rounded=0;orthogonalLoop=1;jettySize=auto;html=1;exitX=0.5;exitY=1;exitDx=0;exitDy=0;entryX=0.5;entryY=0;entryDx=0;entryDy=0;" parent="1" source="Vv51enaofSrraiG2ErQz-7" target="Vv51enaofSrraiG2ErQz-3" edge="1">
          <mxGeometry relative="1" as="geometry" />
        </mxCell>
        <mxCell id="GoF2WL_KzFoqcwlExi9M-4" style="edgeStyle=orthogonalEdgeStyle;rounded=0;orthogonalLoop=1;jettySize=auto;html=1;exitX=1;exitY=0.25;exitDx=0;exitDy=0;entryX=0;entryY=0.75;entryDx=0;entryDy=0;" parent="1" source="Vv51enaofSrraiG2ErQz-7" target="GoF2WL_KzFoqcwlExi9M-2" edge="1">
          <mxGeometry relative="1" as="geometry" />
        </mxCell>
        <mxCell id="uPVtFEJIxMAJ-v-QuEgb-1" style="edgeStyle=orthogonalEdgeStyle;rounded=0;orthogonalLoop=1;jettySize=auto;html=1;exitX=0.25;exitY=0;exitDx=0;exitDy=0;entryX=0.167;entryY=0.125;entryDx=0;entryDy=0;entryPerimeter=0;" parent="1" source="Vv51enaofSrraiG2ErQz-7" target="Vv51enaofSrraiG2ErQz-2" edge="1">
          <mxGeometry relative="1" as="geometry" />
        </mxCell>
        <mxCell id="Vv51enaofSrraiG2ErQz-7" value="3&lt;br&gt;Menu Vip" style="rounded=0;whiteSpace=wrap;html=1;" parent="1" vertex="1">
          <mxGeometry x="320" y="360" width="130" height="40" as="geometry" />
        </mxCell>
        <mxCell id="GoF2WL_KzFoqcwlExi9M-5" style="edgeStyle=orthogonalEdgeStyle;rounded=0;orthogonalLoop=1;jettySize=auto;html=1;exitX=1;exitY=0.5;exitDx=0;exitDy=0;entryX=1;entryY=0.5;entryDx=0;entryDy=0;" parent="1" source="GoF2WL_KzFoqcwlExi9M-2" target="Vv51enaofSrraiG2ErQz-3" edge="1">
          <mxGeometry relative="1" as="geometry" />
        </mxCell>
        <mxCell id="GoF2WL_KzFoqcwlExi9M-2" value="5&lt;br&gt;Interactuar con Menu Finanzas Vip" style="rounded=0;whiteSpace=wrap;html=1;" parent="1" vertex="1">
          <mxGeometry x="630" y="340" width="120" height="60" as="geometry" />
        </mxCell>
      </root>
    </mxGraphModel>
  </diagram>
  <diagram id="4-bR4ZunuAxvt1axme7q" name="Nivel 1 Informe Financiero Prueba">
    <mxGraphModel dx="716" dy="423" grid="1" gridSize="10" guides="1" tooltips="1" connect="1" arrows="1" fold="1" page="1" pageScale="1" pageWidth="827" pageHeight="1169" math="0" shadow="0">
      <root>
        <mxCell id="0" />
        <mxCell id="1" parent="0" />
        <mxCell id="lhumzHTDUQEXTrQRYeew-1" style="edgeStyle=orthogonalEdgeStyle;rounded=0;orthogonalLoop=1;jettySize=auto;html=1;exitX=1;exitY=0.5;exitDx=0;exitDy=0;entryX=0.7;entryY=1.075;entryDx=0;entryDy=0;entryPerimeter=0;" edge="1" parent="1" source="lhumzHTDUQEXTrQRYeew-2" target="lhumzHTDUQEXTrQRYeew-10">
          <mxGeometry relative="1" as="geometry" />
        </mxCell>
        <mxCell id="lhumzHTDUQEXTrQRYeew-2" value="Cliente Vip" style="rounded=0;whiteSpace=wrap;html=1;" vertex="1" parent="1">
          <mxGeometry x="20" y="535" width="120" height="40" as="geometry" />
        </mxCell>
        <mxCell id="lhumzHTDUQEXTrQRYeew-3" value="Informe Financiero Prueba" style="swimlane;whiteSpace=wrap;html=1;" vertex="1" parent="1">
          <mxGeometry x="280" y="450" width="230" height="170" as="geometry" />
        </mxCell>
        <mxCell id="vBk1wXG7uTWkMY9o0bTK-1" value="5.1&lt;br&gt;Resumen Ingresos Basico" style="rounded=0;whiteSpace=wrap;html=1;" vertex="1" parent="lhumzHTDUQEXTrQRYeew-3">
          <mxGeometry x="50" y="35" width="114" height="50" as="geometry" />
        </mxCell>
        <mxCell id="iOmMTYPYPAJHjmMLnheM-1" value="5.2&lt;br&gt;Resumen Egresos Basico" style="rounded=0;whiteSpace=wrap;html=1;" vertex="1" parent="lhumzHTDUQEXTrQRYeew-3">
          <mxGeometry x="52" y="112" width="110" height="45" as="geometry" />
        </mxCell>
        <mxCell id="lhumzHTDUQEXTrQRYeew-9" style="edgeStyle=orthogonalEdgeStyle;rounded=0;orthogonalLoop=1;jettySize=auto;html=1;exitX=1;exitY=0.5;exitDx=0;exitDy=0;entryX=0;entryY=0.5;entryDx=0;entryDy=0;" edge="1" parent="1" source="lhumzHTDUQEXTrQRYeew-10" target="lhumzHTDUQEXTrQRYeew-14">
          <mxGeometry relative="1" as="geometry" />
        </mxCell>
        <mxCell id="lhumzHTDUQEXTrQRYeew-10" value="1&lt;br&gt;Autenticacion" style="rounded=0;whiteSpace=wrap;html=1;" vertex="1" parent="1">
          <mxGeometry x="80" y="420" width="120" height="40" as="geometry" />
        </mxCell>
        <mxCell id="lhumzHTDUQEXTrQRYeew-11" style="edgeStyle=orthogonalEdgeStyle;rounded=0;orthogonalLoop=1;jettySize=auto;html=1;exitX=0.5;exitY=1;exitDx=0;exitDy=0;entryX=0.5;entryY=0;entryDx=0;entryDy=0;" edge="1" parent="1" source="lhumzHTDUQEXTrQRYeew-14" target="lhumzHTDUQEXTrQRYeew-3">
          <mxGeometry relative="1" as="geometry" />
        </mxCell>
        <mxCell id="lhumzHTDUQEXTrQRYeew-12" style="edgeStyle=orthogonalEdgeStyle;rounded=0;orthogonalLoop=1;jettySize=auto;html=1;exitX=1;exitY=0.25;exitDx=0;exitDy=0;entryX=0;entryY=0.75;entryDx=0;entryDy=0;" edge="1" parent="1" source="lhumzHTDUQEXTrQRYeew-14" target="lhumzHTDUQEXTrQRYeew-16">
          <mxGeometry relative="1" as="geometry" />
        </mxCell>
        <mxCell id="lhumzHTDUQEXTrQRYeew-13" style="edgeStyle=orthogonalEdgeStyle;rounded=0;orthogonalLoop=1;jettySize=auto;html=1;exitX=0.25;exitY=0;exitDx=0;exitDy=0;entryX=0.167;entryY=0.125;entryDx=0;entryDy=0;entryPerimeter=0;" edge="1" parent="1" source="lhumzHTDUQEXTrQRYeew-14" target="lhumzHTDUQEXTrQRYeew-2">
          <mxGeometry relative="1" as="geometry" />
        </mxCell>
        <mxCell id="lhumzHTDUQEXTrQRYeew-14" value="2&lt;br&gt;Menu Prueba" style="rounded=0;whiteSpace=wrap;html=1;" vertex="1" parent="1">
          <mxGeometry x="320" y="360" width="130" height="40" as="geometry" />
        </mxCell>
        <mxCell id="lhumzHTDUQEXTrQRYeew-15" style="edgeStyle=orthogonalEdgeStyle;rounded=0;orthogonalLoop=1;jettySize=auto;html=1;exitX=1;exitY=0.5;exitDx=0;exitDy=0;entryX=1;entryY=0.5;entryDx=0;entryDy=0;" edge="1" parent="1" source="lhumzHTDUQEXTrQRYeew-16" target="lhumzHTDUQEXTrQRYeew-3">
          <mxGeometry relative="1" as="geometry" />
        </mxCell>
        <mxCell id="lhumzHTDUQEXTrQRYeew-16" value="5&lt;br&gt;Interactuar con Menu Finanzas Prueba" style="rounded=0;whiteSpace=wrap;html=1;" vertex="1" parent="1">
          <mxGeometry x="630" y="340" width="120" height="60" as="geometry" />
        </mxCell>
      </root>
    </mxGraphModel>
  </diagram>
</mxfile>
